<?xml version="1.0" standalone="no"?>
<!DOCTYPE svg PUBLIC "-//W3C//DTD SVG 20010904//EN" "http://www.w3.org/TR/2001/REC-SVG-20010904/DTD/svg10.dtd">
<!-- Created using Krita: https://krita.org -->
<svg xmlns="http://www.w3.org/2000/svg" 
    xmlns:xlink="http://www.w3.org/1999/xlink"
    xmlns:krita="http://krita.org/namespaces/svg/krita"
    xmlns:sodipodi="http://sodipodi.sourceforge.net/DTD/sodipodi-0.dtd"
    width="123.12pt"
    height="123.12pt"
    viewBox="0 0 123.12 123.12">
<defs/>
<path id="shape0" transform="translate(8.02385390964022, 8.5078901040413)" fill="#b300ff" fill-rule="evenodd" stroke-opacity="0" stroke="#000000" stroke-width="0" stroke-linecap="square" stroke-linejoin="bevel" d="M49.8224 0C84.1391 1.8136 101.87 22.5536 107.09 47.4854C111.142 90.6502 83.5431 104.788 55.3205 105.63C24.0534 106.893 0.0689561 90.0135 0 52.9321C2.08645 14.7338 18.5353 3.07639 49.8224 0" sodipodi:nodetypes="ccccc"/><path id="shape1" transform="translate(30.7799988781403, 40.13999853699)" fill="none" stroke="#b300ff" stroke-width="9.6" stroke-linecap="square" stroke-linejoin="bevel" d="M39.42 55.8L54.18 21.3L0 0" sodipodi:nodetypes="ccc"/><path id="shape2" transform="matrix(0.950077929988765 0.107414504580827 -0.109580082058004 0.969232394972576 36.7169861292025 37.4425154613234)" fill="none" stroke="#ffffff" stroke-width="12.24" stroke-linecap="round" stroke-linejoin="round" d="M0 0C1.56526 8.02599 4.18783 15.9585 6.05244 23.5527C8.71494 34.3967 10.7856 44.6627 14.16 54.48C19.2352 50.1508 23.8778 45.5039 28.9198 41.0625C34.055 36.539 39.5841 32.1855 44.5341 27.7779C50.5652 22.4076 55.9196 17.0242 60.96 12C53.5594 10.5351 42.3499 8.31249 32.0945 6.10673C26.5695 4.9184 21.3023 3.56568 17.1 2.72125C8.21312 0.935438 7.53225 1.23544 0 0Z" sodipodi:nodetypes="ccccccccc"/>
</svg>
